<mxfile host="Electron" agent="Mozilla/5.0 (Windows NT 10.0; Win64; x64) AppleWebKit/537.36 (KHTML, like Gecko) draw.io/24.7.17 Chrome/128.0.6613.36 Electron/32.0.1 Safari/537.36" version="24.7.17" pages="2">
  <diagram name="第 1 页" id="OL0mUAfLYHc_H1LSZPVN">
    <mxGraphModel dx="1933" dy="810" grid="1" gridSize="10" guides="1" tooltips="1" connect="1" arrows="1" fold="1" page="1" pageScale="1" pageWidth="827" pageHeight="1169" math="0" shadow="0">
      <root>
        <mxCell id="0" />
        <mxCell id="1" parent="0" />
        <mxCell id="JAX3s5Vs23c8DorawOY4-1" value="" style="ellipse;html=1;shape=startState;fillColor=#000000;strokeColor=#ff0000;" parent="1" vertex="1">
          <mxGeometry x="400" y="370" width="30" height="30" as="geometry" />
        </mxCell>
        <mxCell id="JAX3s5Vs23c8DorawOY4-2" value="" style="edgeStyle=orthogonalEdgeStyle;html=1;verticalAlign=bottom;endArrow=open;endSize=8;strokeColor=#ff0000;rounded=0;" parent="1" source="JAX3s5Vs23c8DorawOY4-1" edge="1">
          <mxGeometry relative="1" as="geometry">
            <mxPoint x="415" y="460" as="targetPoint" />
          </mxGeometry>
        </mxCell>
        <mxCell id="JAX3s5Vs23c8DorawOY4-3" value="准备" style="swimlane;fontStyle=1;align=center;verticalAlign=middle;childLayout=stackLayout;horizontal=1;startSize=30;horizontalStack=0;resizeParent=0;resizeLast=1;container=0;fontColor=#000000;collapsible=0;rounded=1;arcSize=30;strokeColor=#ff0000;fillColor=#ffffc0;swimlaneFillColor=#ffffc0;dropTarget=0;whiteSpace=wrap;" parent="1" vertex="1">
          <mxGeometry x="335" y="460" width="160" height="77" as="geometry" />
        </mxCell>
        <mxCell id="JAX3s5Vs23c8DorawOY4-4" value="idle初始化&lt;div&gt;重置msp到栈的初始位置&lt;/div&gt;&lt;div&gt;触发svc&lt;/div&gt;" style="text;html=1;strokeColor=none;fillColor=none;align=center;verticalAlign=middle;spacingLeft=4;spacingRight=4;overflow=hidden;rotatable=0;fontColor=#000000;whiteSpace=wrap;" parent="JAX3s5Vs23c8DorawOY4-3" vertex="1">
          <mxGeometry y="30" width="160" height="47" as="geometry" />
        </mxCell>
        <mxCell id="JAX3s5Vs23c8DorawOY4-5" value="" style="edgeStyle=orthogonalEdgeStyle;html=1;verticalAlign=bottom;endArrow=open;endSize=8;strokeColor=#ff0000;rounded=0;entryX=0.5;entryY=0;entryDx=0;entryDy=0;" parent="1" source="JAX3s5Vs23c8DorawOY4-3" target="JAX3s5Vs23c8DorawOY4-6" edge="1">
          <mxGeometry relative="1" as="geometry">
            <mxPoint x="410" y="480" as="targetPoint" />
          </mxGeometry>
        </mxCell>
        <mxCell id="JAX3s5Vs23c8DorawOY4-6" value="SVC" style="swimlane;fontStyle=1;align=center;verticalAlign=middle;childLayout=stackLayout;horizontal=1;startSize=30;horizontalStack=0;resizeParent=0;resizeLast=1;container=0;fontColor=#000000;collapsible=0;rounded=1;arcSize=30;strokeColor=#ff0000;fillColor=#ffffc0;swimlaneFillColor=#ffffc0;dropTarget=0;" parent="1" vertex="1">
          <mxGeometry x="307.5" y="570" width="215" height="90" as="geometry" />
        </mxCell>
        <mxCell id="JAX3s5Vs23c8DorawOY4-7" value="&lt;ol&gt;&lt;li&gt;把R4-R11存储到msp&lt;/li&gt;&lt;li&gt;切换到psp&lt;/li&gt;&lt;li&gt;修改lr，触发跳转&lt;/li&gt;&lt;/ol&gt;" style="text;html=1;strokeColor=none;fillColor=none;align=left;verticalAlign=middle;spacingLeft=4;spacingRight=4;whiteSpace=wrap;overflow=hidden;rotatable=0;fontColor=#000000;" parent="JAX3s5Vs23c8DorawOY4-6" vertex="1">
          <mxGeometry y="30" width="215" height="60" as="geometry" />
        </mxCell>
        <mxCell id="JAX3s5Vs23c8DorawOY4-8" value="" style="edgeStyle=orthogonalEdgeStyle;html=1;verticalAlign=bottom;endArrow=open;endSize=8;strokeColor=#ff0000;rounded=0;exitX=0.5;exitY=1;exitDx=0;exitDy=0;entryX=0.5;entryY=0;entryDx=0;entryDy=0;" parent="1" source="JAX3s5Vs23c8DorawOY4-7" target="JAX3s5Vs23c8DorawOY4-15" edge="1">
          <mxGeometry relative="1" as="geometry">
            <mxPoint x="430" y="860" as="targetPoint" />
            <mxPoint x="415" y="660" as="sourcePoint" />
            <Array as="points" />
          </mxGeometry>
        </mxCell>
        <mxCell id="JAX3s5Vs23c8DorawOY4-15" value="任务" style="swimlane;fontStyle=1;align=center;verticalAlign=middle;childLayout=stackLayout;horizontal=1;startSize=30;horizontalStack=0;resizeParent=0;resizeLast=1;container=0;fontColor=#000000;collapsible=0;rounded=1;arcSize=30;strokeColor=#ff0000;fillColor=#ffffc0;swimlaneFillColor=#ffffc0;dropTarget=0;" parent="1" vertex="1">
          <mxGeometry x="307.5" y="710" width="215" height="90" as="geometry" />
        </mxCell>
        <mxCell id="JAX3s5Vs23c8DorawOY4-16" value="&lt;ol&gt;&lt;li&gt;填充psp&lt;/li&gt;&lt;li&gt;等待中断，或者主动让出任务&lt;/li&gt;&lt;/ol&gt;" style="text;html=1;strokeColor=none;fillColor=none;align=left;verticalAlign=middle;spacingLeft=4;spacingRight=4;whiteSpace=wrap;overflow=hidden;rotatable=0;fontColor=#000000;" parent="JAX3s5Vs23c8DorawOY4-15" vertex="1">
          <mxGeometry y="30" width="215" height="60" as="geometry" />
        </mxCell>
        <mxCell id="JAX3s5Vs23c8DorawOY4-17" value="" style="edgeStyle=orthogonalEdgeStyle;html=1;verticalAlign=bottom;endArrow=open;endSize=8;strokeColor=#ff0000;rounded=0;entryX=0.5;entryY=0;entryDx=0;entryDy=0;" parent="1" source="JAX3s5Vs23c8DorawOY4-15" target="JAX3s5Vs23c8DorawOY4-27" edge="1">
          <mxGeometry relative="1" as="geometry">
            <mxPoint x="415" y="820" as="targetPoint" />
          </mxGeometry>
        </mxCell>
        <mxCell id="JAX3s5Vs23c8DorawOY4-23" value="Pensv" style="swimlane;fontStyle=1;align=center;verticalAlign=middle;childLayout=stackLayout;horizontal=1;startSize=30;horizontalStack=0;resizeParent=0;resizeLast=1;container=0;fontColor=#000000;collapsible=0;rounded=1;arcSize=30;strokeColor=#ff0000;fillColor=#ffffc0;swimlaneFillColor=#ffffc0;dropTarget=0;" parent="1" vertex="1">
          <mxGeometry x="225" y="1330" width="232.5" height="151" as="geometry" />
        </mxCell>
        <mxCell id="JAX3s5Vs23c8DorawOY4-24" value="&lt;ol&gt;&lt;li&gt;把R4-R11存储到当前任务的堆栈&lt;/li&gt;&lt;li&gt;修改当前任务，到下一个就绪任务&lt;/li&gt;&lt;li&gt;通过修改后的当前任务的堆栈恢复R4-R11寄存器&lt;/li&gt;&lt;li&gt;让psp重新指向新任务堆栈&lt;/li&gt;&lt;li&gt;修改LR，触发跳转&lt;/li&gt;&lt;/ol&gt;" style="text;html=1;strokeColor=none;fillColor=none;align=left;verticalAlign=middle;spacingLeft=4;spacingRight=4;whiteSpace=wrap;overflow=hidden;rotatable=0;fontColor=#000000;" parent="JAX3s5Vs23c8DorawOY4-23" vertex="1">
          <mxGeometry y="30" width="232.5" height="121" as="geometry" />
        </mxCell>
        <mxCell id="JAX3s5Vs23c8DorawOY4-27" value="yeild" style="swimlane;fontStyle=1;align=center;verticalAlign=middle;childLayout=stackLayout;horizontal=1;startSize=30;horizontalStack=0;resizeParent=0;resizeLast=1;container=0;fontColor=#000000;collapsible=0;rounded=1;arcSize=30;strokeColor=#ff0000;fillColor=#ffffc0;swimlaneFillColor=#ffffc0;dropTarget=0;" parent="1" vertex="1">
          <mxGeometry x="10" y="950" width="215" height="90" as="geometry" />
        </mxCell>
        <mxCell id="JAX3s5Vs23c8DorawOY4-28" value="&lt;ol&gt;&lt;li&gt;设置dsb，isb&lt;/li&gt;&lt;li&gt;触发pensv&lt;/li&gt;&lt;/ol&gt;" style="text;html=1;strokeColor=none;fillColor=none;align=left;verticalAlign=middle;spacingLeft=4;spacingRight=4;whiteSpace=wrap;overflow=hidden;rotatable=0;fontColor=#000000;" parent="JAX3s5Vs23c8DorawOY4-27" vertex="1">
          <mxGeometry y="30" width="215" height="60" as="geometry" />
        </mxCell>
        <mxCell id="JAX3s5Vs23c8DorawOY4-29" value="delay" style="swimlane;fontStyle=1;align=center;verticalAlign=middle;childLayout=stackLayout;horizontal=1;startSize=30;horizontalStack=0;resizeParent=0;resizeLast=1;container=0;fontColor=#000000;collapsible=0;rounded=1;arcSize=30;strokeColor=#ff0000;fillColor=#ffffc0;swimlaneFillColor=#ffffc0;dropTarget=0;" parent="1" vertex="1">
          <mxGeometry x="307.5" y="950" width="215" height="90" as="geometry" />
        </mxCell>
        <mxCell id="JAX3s5Vs23c8DorawOY4-30" value="&lt;ol&gt;&lt;li&gt;更新下一个延时任务解锁时间&lt;/li&gt;&lt;li&gt;把当前任务加入延时列表&lt;/li&gt;&lt;li&gt;触发pensv&lt;/li&gt;&lt;/ol&gt;" style="text;html=1;strokeColor=none;fillColor=none;align=left;verticalAlign=middle;spacingLeft=4;spacingRight=4;whiteSpace=wrap;overflow=hidden;rotatable=0;fontColor=#000000;" parent="JAX3s5Vs23c8DorawOY4-29" vertex="1">
          <mxGeometry y="30" width="215" height="60" as="geometry" />
        </mxCell>
        <mxCell id="JAX3s5Vs23c8DorawOY4-31" style="edgeStyle=orthogonalEdgeStyle;rounded=0;orthogonalLoop=1;jettySize=auto;html=1;exitX=0.5;exitY=1;exitDx=0;exitDy=0;entryX=0.5;entryY=0;entryDx=0;entryDy=0;" parent="1" source="JAX3s5Vs23c8DorawOY4-16" target="JAX3s5Vs23c8DorawOY4-29" edge="1">
          <mxGeometry relative="1" as="geometry" />
        </mxCell>
        <mxCell id="JAX3s5Vs23c8DorawOY4-32" style="edgeStyle=orthogonalEdgeStyle;rounded=0;orthogonalLoop=1;jettySize=auto;html=1;exitX=0.5;exitY=1;exitDx=0;exitDy=0;entryX=0.5;entryY=0;entryDx=0;entryDy=0;" parent="1" source="JAX3s5Vs23c8DorawOY4-30" target="JAX3s5Vs23c8DorawOY4-23" edge="1">
          <mxGeometry relative="1" as="geometry" />
        </mxCell>
        <mxCell id="JAX3s5Vs23c8DorawOY4-33" style="edgeStyle=orthogonalEdgeStyle;rounded=0;orthogonalLoop=1;jettySize=auto;html=1;exitX=0.5;exitY=1;exitDx=0;exitDy=0;entryX=0.5;entryY=0;entryDx=0;entryDy=0;" parent="1" source="JAX3s5Vs23c8DorawOY4-28" target="JAX3s5Vs23c8DorawOY4-23" edge="1">
          <mxGeometry relative="1" as="geometry" />
        </mxCell>
        <mxCell id="JAX3s5Vs23c8DorawOY4-34" value="异步等待" style="swimlane;fontStyle=1;align=center;verticalAlign=middle;childLayout=stackLayout;horizontal=1;startSize=30;horizontalStack=0;resizeParent=0;resizeLast=1;container=0;fontColor=#000000;collapsible=0;rounded=1;arcSize=30;strokeColor=#ff0000;fillColor=#ffffc0;swimlaneFillColor=#ffffc0;dropTarget=0;" parent="1" vertex="1">
          <mxGeometry x="590" y="1010" width="215" height="90" as="geometry" />
        </mxCell>
        <mxCell id="JAX3s5Vs23c8DorawOY4-35" value="&lt;ol&gt;&lt;li&gt;把当前任务加入异步等待列表&lt;/li&gt;&lt;li&gt;设置当前异步解锁条件&lt;/li&gt;&lt;li&gt;触发pensv&lt;/li&gt;&lt;/ol&gt;" style="text;html=1;strokeColor=none;fillColor=none;align=left;verticalAlign=middle;spacingLeft=4;spacingRight=4;whiteSpace=wrap;overflow=hidden;rotatable=0;fontColor=#000000;horizontal=1;" parent="JAX3s5Vs23c8DorawOY4-34" vertex="1">
          <mxGeometry y="30" width="215" height="60" as="geometry" />
        </mxCell>
        <mxCell id="JAX3s5Vs23c8DorawOY4-36" value="异步消息获取" style="swimlane;fontStyle=1;align=center;verticalAlign=middle;childLayout=stackLayout;horizontal=1;startSize=30;horizontalStack=0;resizeParent=0;resizeLast=1;container=0;fontColor=#000000;collapsible=0;rounded=1;arcSize=30;strokeColor=#ff0000;fillColor=#ffffc0;swimlaneFillColor=#ffffc0;dropTarget=0;" parent="1" vertex="1">
          <mxGeometry x="590" y="870" width="215" height="90" as="geometry" />
        </mxCell>
        <mxCell id="JAX3s5Vs23c8DorawOY4-37" value="&lt;ol&gt;&lt;li&gt;查询当前是否有消息&lt;/li&gt;&lt;li&gt;查询是否为异步方式接收消息&lt;/li&gt;&lt;/ol&gt;" style="text;html=1;strokeColor=none;fillColor=none;align=left;verticalAlign=middle;spacingLeft=4;spacingRight=4;whiteSpace=wrap;overflow=hidden;rotatable=0;fontColor=#000000;horizontal=1;" parent="JAX3s5Vs23c8DorawOY4-36" vertex="1">
          <mxGeometry y="30" width="215" height="60" as="geometry" />
        </mxCell>
        <mxCell id="JAX3s5Vs23c8DorawOY4-38" style="edgeStyle=orthogonalEdgeStyle;rounded=0;orthogonalLoop=1;jettySize=auto;html=1;exitX=0.5;exitY=1;exitDx=0;exitDy=0;entryX=0.5;entryY=0;entryDx=0;entryDy=0;" parent="1" source="JAX3s5Vs23c8DorawOY4-16" target="JAX3s5Vs23c8DorawOY4-36" edge="1">
          <mxGeometry relative="1" as="geometry" />
        </mxCell>
        <mxCell id="JAX3s5Vs23c8DorawOY4-39" style="edgeStyle=orthogonalEdgeStyle;rounded=0;orthogonalLoop=1;jettySize=auto;html=1;exitX=0.5;exitY=1;exitDx=0;exitDy=0;entryX=0.5;entryY=0;entryDx=0;entryDy=0;" parent="1" source="JAX3s5Vs23c8DorawOY4-37" target="JAX3s5Vs23c8DorawOY4-34" edge="1">
          <mxGeometry relative="1" as="geometry" />
        </mxCell>
        <mxCell id="JAX3s5Vs23c8DorawOY4-41" style="edgeStyle=orthogonalEdgeStyle;rounded=0;orthogonalLoop=1;jettySize=auto;html=1;exitX=0.5;exitY=1;exitDx=0;exitDy=0;entryX=0.5;entryY=0;entryDx=0;entryDy=0;" parent="1" source="JAX3s5Vs23c8DorawOY4-35" target="JAX3s5Vs23c8DorawOY4-23" edge="1">
          <mxGeometry relative="1" as="geometry">
            <Array as="points">
              <mxPoint x="698" y="1190" />
              <mxPoint x="341" y="1190" />
            </Array>
          </mxGeometry>
        </mxCell>
        <mxCell id="JAX3s5Vs23c8DorawOY4-43" style="edgeStyle=orthogonalEdgeStyle;rounded=0;orthogonalLoop=1;jettySize=auto;html=1;exitX=0.5;exitY=1;exitDx=0;exitDy=0;entryX=0.5;entryY=0;entryDx=0;entryDy=0;" parent="1" source="JAX3s5Vs23c8DorawOY4-24" target="JAX3s5Vs23c8DorawOY4-15" edge="1">
          <mxGeometry relative="1" as="geometry">
            <Array as="points">
              <mxPoint x="341" y="1501" />
              <mxPoint x="-200" y="1501" />
              <mxPoint x="-200" y="690" />
              <mxPoint x="415" y="690" />
            </Array>
          </mxGeometry>
        </mxCell>
        <mxCell id="JAX3s5Vs23c8DorawOY4-44" value="发送异步消息" style="swimlane;fontStyle=1;align=center;verticalAlign=middle;childLayout=stackLayout;horizontal=1;startSize=30;horizontalStack=0;resizeParent=0;resizeLast=1;container=0;fontColor=#000000;collapsible=0;rounded=1;arcSize=30;strokeColor=#ff0000;fillColor=#ffffc0;swimlaneFillColor=#ffffc0;dropTarget=0;" parent="1" vertex="1">
          <mxGeometry x="900" y="950" width="215" height="105" as="geometry" />
        </mxCell>
        <mxCell id="JAX3s5Vs23c8DorawOY4-45" value="&lt;ol&gt;&lt;li&gt;填充数据结构&lt;/li&gt;&lt;li&gt;查看异步消息队列是否有被阻塞的任务&lt;/li&gt;&lt;li&gt;把阻塞的任务加入就绪队列&lt;/li&gt;&lt;/ol&gt;" style="text;html=1;strokeColor=none;fillColor=none;align=left;verticalAlign=middle;spacingLeft=4;spacingRight=4;whiteSpace=wrap;overflow=hidden;rotatable=0;fontColor=#000000;" parent="JAX3s5Vs23c8DorawOY4-44" vertex="1">
          <mxGeometry y="30" width="215" height="75" as="geometry" />
        </mxCell>
        <mxCell id="JAX3s5Vs23c8DorawOY4-46" style="edgeStyle=orthogonalEdgeStyle;rounded=0;orthogonalLoop=1;jettySize=auto;html=1;exitX=1;exitY=0.25;exitDx=0;exitDy=0;entryX=0.5;entryY=0;entryDx=0;entryDy=0;" parent="1" source="JAX3s5Vs23c8DorawOY4-16" target="JAX3s5Vs23c8DorawOY4-44" edge="1">
          <mxGeometry relative="1" as="geometry" />
        </mxCell>
        <mxCell id="JAX3s5Vs23c8DorawOY4-48" value="锁内操作" style="swimlane;fontStyle=1;align=center;verticalAlign=middle;childLayout=stackLayout;horizontal=1;startSize=30;horizontalStack=0;resizeParent=0;resizeLast=1;container=0;fontColor=#000000;collapsible=0;rounded=1;arcSize=30;strokeColor=#ff0000;fillColor=#ffffc0;swimlaneFillColor=#ffffc0;dropTarget=0;" parent="1" vertex="1">
          <mxGeometry x="1140" y="950" width="215" height="105" as="geometry" />
        </mxCell>
        <mxCell id="JAX3s5Vs23c8DorawOY4-49" value="&lt;ol&gt;&lt;li&gt;加锁就是关闭调度器&lt;/li&gt;&lt;li&gt;去锁就是打开i调度器&lt;/li&gt;&lt;li&gt;前提是中断不要修改任务的数据&lt;/li&gt;&lt;/ol&gt;" style="text;html=1;strokeColor=none;fillColor=none;align=left;verticalAlign=middle;spacingLeft=4;spacingRight=4;whiteSpace=wrap;overflow=hidden;rotatable=0;fontColor=#000000;" parent="JAX3s5Vs23c8DorawOY4-48" vertex="1">
          <mxGeometry y="30" width="215" height="75" as="geometry" />
        </mxCell>
        <mxCell id="JAX3s5Vs23c8DorawOY4-50" style="edgeStyle=orthogonalEdgeStyle;rounded=0;orthogonalLoop=1;jettySize=auto;html=1;exitX=1;exitY=0.25;exitDx=0;exitDy=0;entryX=0.5;entryY=0;entryDx=0;entryDy=0;" parent="1" source="JAX3s5Vs23c8DorawOY4-16" target="JAX3s5Vs23c8DorawOY4-48" edge="1">
          <mxGeometry relative="1" as="geometry" />
        </mxCell>
      </root>
    </mxGraphModel>
  </diagram>
  <diagram id="nozQEtY4urhzsfKK-SEI" name="第 2 页">
    <mxGraphModel dx="1227" dy="2069" grid="1" gridSize="10" guides="1" tooltips="1" connect="1" arrows="1" fold="1" page="1" pageScale="1" pageWidth="827" pageHeight="1169" math="0" shadow="0">
      <root>
        <mxCell id="0" />
        <mxCell id="1" parent="0" />
        <mxCell id="13HKXBkhU_7nLGPWWOYN-1" value="List" style="swimlane;fontStyle=1;align=center;verticalAlign=top;childLayout=stackLayout;horizontal=1;startSize=26;horizontalStack=0;resizeParent=1;resizeParentMax=0;resizeLast=0;collapsible=1;marginBottom=0;whiteSpace=wrap;html=1;" parent="1" vertex="1">
          <mxGeometry x="70" y="367" width="250" height="327" as="geometry" />
        </mxCell>
        <mxCell id="13HKXBkhU_7nLGPWWOYN-5" value="head:Option&amp;lt;NodeType&amp;gt;" style="text;strokeColor=none;fillColor=none;align=left;verticalAlign=top;spacingLeft=4;spacingRight=4;overflow=hidden;rotatable=0;points=[[0,0.5],[1,0.5]];portConstraint=eastwest;whiteSpace=wrap;html=1;" parent="13HKXBkhU_7nLGPWWOYN-1" vertex="1">
          <mxGeometry y="26" width="250" height="28" as="geometry" />
        </mxCell>
        <mxCell id="13HKXBkhU_7nLGPWWOYN-17" value="tail:Option&amp;lt;NodeType&amp;gt;" style="text;strokeColor=none;fillColor=none;align=left;verticalAlign=top;spacingLeft=4;spacingRight=4;overflow=hidden;rotatable=0;points=[[0,0.5],[1,0.5]];portConstraint=eastwest;whiteSpace=wrap;html=1;" parent="13HKXBkhU_7nLGPWWOYN-1" vertex="1">
          <mxGeometry y="54" width="250" height="28" as="geometry" />
        </mxCell>
        <mxCell id="13HKXBkhU_7nLGPWWOYN-21" value="+ len: usize" style="text;strokeColor=none;fillColor=none;align=left;verticalAlign=top;spacingLeft=4;spacingRight=4;overflow=hidden;rotatable=0;points=[[0,0.5],[1,0.5]];portConstraint=eastwest;whiteSpace=wrap;html=1;" parent="13HKXBkhU_7nLGPWWOYN-1" vertex="1">
          <mxGeometry y="82" width="250" height="28" as="geometry" />
        </mxCell>
        <mxCell id="13HKXBkhU_7nLGPWWOYN-3" value="" style="line;strokeWidth=1;fillColor=none;align=left;verticalAlign=middle;spacingTop=-1;spacingLeft=3;spacingRight=3;rotatable=0;labelPosition=right;points=[];portConstraint=eastwest;strokeColor=inherit;" parent="13HKXBkhU_7nLGPWWOYN-1" vertex="1">
          <mxGeometry y="110" width="250" height="8" as="geometry" />
        </mxCell>
        <mxCell id="13HKXBkhU_7nLGPWWOYN-4" value="push_back(&amp;amp;self)-&amp;gt;Option&amp;lt;NodeType&amp;gt;" style="text;strokeColor=none;fillColor=none;align=left;verticalAlign=top;spacingLeft=4;spacingRight=4;overflow=hidden;rotatable=0;points=[[0,0.5],[1,0.5]];portConstraint=eastwest;whiteSpace=wrap;html=1;" parent="13HKXBkhU_7nLGPWWOYN-1" vertex="1">
          <mxGeometry y="118" width="250" height="26" as="geometry" />
        </mxCell>
        <mxCell id="13HKXBkhU_7nLGPWWOYN-9" value="push_front(&amp;amp;self)-&amp;gt;Option&amp;lt;NodeType&amp;gt;" style="text;strokeColor=none;fillColor=none;align=left;verticalAlign=top;spacingLeft=4;spacingRight=4;overflow=hidden;rotatable=0;points=[[0,0.5],[1,0.5]];portConstraint=eastwest;whiteSpace=wrap;html=1;" parent="13HKXBkhU_7nLGPWWOYN-1" vertex="1">
          <mxGeometry y="144" width="250" height="27" as="geometry" />
        </mxCell>
        <mxCell id="13HKXBkhU_7nLGPWWOYN-10" value="pop_back(&amp;amp;self)-&amp;gt;Option&amp;lt;NodeType&amp;gt;" style="text;strokeColor=none;fillColor=none;align=left;verticalAlign=top;spacingLeft=4;spacingRight=4;overflow=hidden;rotatable=0;points=[[0,0.5],[1,0.5]];portConstraint=eastwest;whiteSpace=wrap;html=1;" parent="13HKXBkhU_7nLGPWWOYN-1" vertex="1">
          <mxGeometry y="171" width="250" height="26" as="geometry" />
        </mxCell>
        <mxCell id="13HKXBkhU_7nLGPWWOYN-11" value="pop_front(&amp;amp;self)-&amp;gt;Option&amp;lt;NodeType&amp;gt;" style="text;strokeColor=none;fillColor=none;align=left;verticalAlign=top;spacingLeft=4;spacingRight=4;overflow=hidden;rotatable=0;points=[[0,0.5],[1,0.5]];portConstraint=eastwest;whiteSpace=wrap;html=1;" parent="13HKXBkhU_7nLGPWWOYN-1" vertex="1">
          <mxGeometry y="197" width="250" height="26" as="geometry" />
        </mxCell>
        <mxCell id="13HKXBkhU_7nLGPWWOYN-13" value="iter-&amp;gt;Option&amp;lt;NodeType&amp;gt;" style="text;strokeColor=none;fillColor=none;align=left;verticalAlign=top;spacingLeft=4;spacingRight=4;overflow=hidden;rotatable=0;points=[[0,0.5],[1,0.5]];portConstraint=eastwest;whiteSpace=wrap;html=1;" parent="13HKXBkhU_7nLGPWWOYN-1" vertex="1">
          <mxGeometry y="223" width="250" height="26" as="geometry" />
        </mxCell>
        <mxCell id="13HKXBkhU_7nLGPWWOYN-14" value="+ method(type): type" style="text;strokeColor=none;fillColor=none;align=left;verticalAlign=top;spacingLeft=4;spacingRight=4;overflow=hidden;rotatable=0;points=[[0,0.5],[1,0.5]];portConstraint=eastwest;whiteSpace=wrap;html=1;" parent="13HKXBkhU_7nLGPWWOYN-1" vertex="1">
          <mxGeometry y="249" width="250" height="26" as="geometry" />
        </mxCell>
        <mxCell id="13HKXBkhU_7nLGPWWOYN-15" value="+ method(type): type" style="text;strokeColor=none;fillColor=none;align=left;verticalAlign=top;spacingLeft=4;spacingRight=4;overflow=hidden;rotatable=0;points=[[0,0.5],[1,0.5]];portConstraint=eastwest;whiteSpace=wrap;html=1;" parent="13HKXBkhU_7nLGPWWOYN-1" vertex="1">
          <mxGeometry y="275" width="250" height="26" as="geometry" />
        </mxCell>
        <mxCell id="13HKXBkhU_7nLGPWWOYN-16" value="+ method(type): type" style="text;strokeColor=none;fillColor=none;align=left;verticalAlign=top;spacingLeft=4;spacingRight=4;overflow=hidden;rotatable=0;points=[[0,0.5],[1,0.5]];portConstraint=eastwest;whiteSpace=wrap;html=1;" parent="13HKXBkhU_7nLGPWWOYN-1" vertex="1">
          <mxGeometry y="301" width="250" height="26" as="geometry" />
        </mxCell>
        <mxCell id="13HKXBkhU_7nLGPWWOYN-23" value="Node" style="swimlane;fontStyle=1;align=center;verticalAlign=top;childLayout=stackLayout;horizontal=1;startSize=26;horizontalStack=0;resizeParent=1;resizeParentMax=0;resizeLast=0;collapsible=1;marginBottom=0;whiteSpace=wrap;html=1;" parent="1" vertex="1">
          <mxGeometry x="450" y="410" width="330" height="390" as="geometry" />
        </mxCell>
        <mxCell id="13HKXBkhU_7nLGPWWOYN-24" value="next:Option&amp;lt;NodeType&amp;gt;" style="text;strokeColor=none;fillColor=none;align=left;verticalAlign=top;spacingLeft=4;spacingRight=4;overflow=hidden;rotatable=0;points=[[0,0.5],[1,0.5]];portConstraint=eastwest;whiteSpace=wrap;html=1;" parent="13HKXBkhU_7nLGPWWOYN-23" vertex="1">
          <mxGeometry y="26" width="330" height="28" as="geometry" />
        </mxCell>
        <mxCell id="13HKXBkhU_7nLGPWWOYN-25" value="prev:Option&amp;lt;NodeType&amp;gt;" style="text;strokeColor=none;fillColor=none;align=left;verticalAlign=top;spacingLeft=4;spacingRight=4;overflow=hidden;rotatable=0;points=[[0,0.5],[1,0.5]];portConstraint=eastwest;whiteSpace=wrap;html=1;" parent="13HKXBkhU_7nLGPWWOYN-23" vertex="1">
          <mxGeometry y="54" width="330" height="32" as="geometry" />
        </mxCell>
        <mxCell id="13HKXBkhU_7nLGPWWOYN-26" value="element:&lt;span style=&quot;text-align: center;&quot;&gt;TType&lt;/span&gt;" style="text;strokeColor=none;fillColor=none;align=left;verticalAlign=top;spacingLeft=4;spacingRight=4;overflow=hidden;rotatable=0;points=[[0,0.5],[1,0.5]];portConstraint=eastwest;whiteSpace=wrap;html=1;" parent="13HKXBkhU_7nLGPWWOYN-23" vertex="1">
          <mxGeometry y="86" width="330" height="28" as="geometry" />
        </mxCell>
        <mxCell id="13HKXBkhU_7nLGPWWOYN-92" value="list_handle:ListType" style="text;strokeColor=none;fillColor=none;align=left;verticalAlign=top;spacingLeft=4;spacingRight=4;overflow=hidden;rotatable=0;points=[[0,0.5],[1,0.5]];portConstraint=eastwest;whiteSpace=wrap;html=1;" parent="13HKXBkhU_7nLGPWWOYN-23" vertex="1">
          <mxGeometry y="114" width="330" height="28" as="geometry" />
        </mxCell>
        <mxCell id="13HKXBkhU_7nLGPWWOYN-27" value="+ field: type" style="text;strokeColor=none;fillColor=none;align=left;verticalAlign=top;spacingLeft=4;spacingRight=4;overflow=hidden;rotatable=0;points=[[0,0.5],[1,0.5]];portConstraint=eastwest;whiteSpace=wrap;html=1;" parent="13HKXBkhU_7nLGPWWOYN-23" vertex="1">
          <mxGeometry y="142" width="330" height="28" as="geometry" />
        </mxCell>
        <mxCell id="13HKXBkhU_7nLGPWWOYN-28" value="+ field: type" style="text;strokeColor=none;fillColor=none;align=left;verticalAlign=top;spacingLeft=4;spacingRight=4;overflow=hidden;rotatable=0;points=[[0,0.5],[1,0.5]];portConstraint=eastwest;whiteSpace=wrap;html=1;" parent="13HKXBkhU_7nLGPWWOYN-23" vertex="1">
          <mxGeometry y="170" width="330" height="28" as="geometry" />
        </mxCell>
        <mxCell id="13HKXBkhU_7nLGPWWOYN-29" value="+ field: type" style="text;strokeColor=none;fillColor=none;align=left;verticalAlign=top;spacingLeft=4;spacingRight=4;overflow=hidden;rotatable=0;points=[[0,0.5],[1,0.5]];portConstraint=eastwest;whiteSpace=wrap;html=1;" parent="13HKXBkhU_7nLGPWWOYN-23" vertex="1">
          <mxGeometry y="198" width="330" height="28" as="geometry" />
        </mxCell>
        <mxCell id="13HKXBkhU_7nLGPWWOYN-30" value="" style="line;strokeWidth=1;fillColor=none;align=left;verticalAlign=middle;spacingTop=-1;spacingLeft=3;spacingRight=3;rotatable=0;labelPosition=right;points=[];portConstraint=eastwest;strokeColor=inherit;" parent="13HKXBkhU_7nLGPWWOYN-23" vertex="1">
          <mxGeometry y="226" width="330" height="8" as="geometry" />
        </mxCell>
        <mxCell id="13HKXBkhU_7nLGPWWOYN-36" value="next()-&amp;gt;Option&amp;lt;NodeType&amp;gt;" style="text;strokeColor=none;fillColor=none;align=left;verticalAlign=top;spacingLeft=4;spacingRight=4;overflow=hidden;rotatable=0;points=[[0,0.5],[1,0.5]];portConstraint=eastwest;whiteSpace=wrap;html=1;" parent="13HKXBkhU_7nLGPWWOYN-23" vertex="1">
          <mxGeometry y="234" width="330" height="26" as="geometry" />
        </mxCell>
        <mxCell id="13HKXBkhU_7nLGPWWOYN-37" value="prev()-&amp;gt;Option&amp;lt;NodeType&amp;gt;" style="text;strokeColor=none;fillColor=none;align=left;verticalAlign=top;spacingLeft=4;spacingRight=4;overflow=hidden;rotatable=0;points=[[0,0.5],[1,0.5]];portConstraint=eastwest;whiteSpace=wrap;html=1;" parent="13HKXBkhU_7nLGPWWOYN-23" vertex="1">
          <mxGeometry y="260" width="330" height="26" as="geometry" />
        </mxCell>
        <mxCell id="13HKXBkhU_7nLGPWWOYN-71" value="insert" style="text;strokeColor=none;fillColor=none;align=left;verticalAlign=top;spacingLeft=4;spacingRight=4;overflow=hidden;rotatable=0;points=[[0,0.5],[1,0.5]];portConstraint=eastwest;whiteSpace=wrap;html=1;" parent="13HKXBkhU_7nLGPWWOYN-23" vertex="1">
          <mxGeometry y="286" width="330" height="26" as="geometry" />
        </mxCell>
        <mxCell id="13HKXBkhU_7nLGPWWOYN-72" value="del" style="text;strokeColor=none;fillColor=none;align=left;verticalAlign=top;spacingLeft=4;spacingRight=4;overflow=hidden;rotatable=0;points=[[0,0.5],[1,0.5]];portConstraint=eastwest;whiteSpace=wrap;html=1;" parent="13HKXBkhU_7nLGPWWOYN-23" vertex="1">
          <mxGeometry y="312" width="330" height="26" as="geometry" />
        </mxCell>
        <mxCell id="13HKXBkhU_7nLGPWWOYN-93" value="into_element()-&amp;gt;Option&amp;lt;TType&amp;gt;" style="text;strokeColor=none;fillColor=none;align=left;verticalAlign=top;spacingLeft=4;spacingRight=4;overflow=hidden;rotatable=0;points=[[0,0.5],[1,0.5]];portConstraint=eastwest;whiteSpace=wrap;html=1;" parent="13HKXBkhU_7nLGPWWOYN-23" vertex="1">
          <mxGeometry y="338" width="330" height="26" as="geometry" />
        </mxCell>
        <mxCell id="13HKXBkhU_7nLGPWWOYN-94" value="get_list()-&amp;gt;ListType" style="text;strokeColor=none;fillColor=none;align=left;verticalAlign=top;spacingLeft=4;spacingRight=4;overflow=hidden;rotatable=0;points=[[0,0.5],[1,0.5]];portConstraint=eastwest;whiteSpace=wrap;html=1;" parent="13HKXBkhU_7nLGPWWOYN-23" vertex="1">
          <mxGeometry y="364" width="330" height="26" as="geometry" />
        </mxCell>
        <mxCell id="13HKXBkhU_7nLGPWWOYN-40" value="T" style="swimlane;fontStyle=1;align=center;verticalAlign=top;childLayout=stackLayout;horizontal=1;startSize=26;horizontalStack=0;resizeParent=1;resizeParentMax=0;resizeLast=0;collapsible=1;marginBottom=0;whiteSpace=wrap;html=1;" parent="1" vertex="1">
          <mxGeometry x="890" y="430" width="250" height="86" as="geometry" />
        </mxCell>
        <mxCell id="13HKXBkhU_7nLGPWWOYN-41" value="node_handle:Option&amp;lt;NodeType&amp;gt;" style="text;strokeColor=none;fillColor=none;align=left;verticalAlign=top;spacingLeft=4;spacingRight=4;overflow=hidden;rotatable=0;points=[[0,0.5],[1,0.5]];portConstraint=eastwest;whiteSpace=wrap;html=1;" parent="13HKXBkhU_7nLGPWWOYN-40" vertex="1">
          <mxGeometry y="26" width="250" height="26" as="geometry" />
        </mxCell>
        <mxCell id="13HKXBkhU_7nLGPWWOYN-42" value="" style="line;strokeWidth=1;fillColor=none;align=left;verticalAlign=middle;spacingTop=-1;spacingLeft=3;spacingRight=3;rotatable=0;labelPosition=right;points=[];portConstraint=eastwest;strokeColor=inherit;" parent="13HKXBkhU_7nLGPWWOYN-40" vertex="1">
          <mxGeometry y="52" width="250" height="8" as="geometry" />
        </mxCell>
        <mxCell id="13HKXBkhU_7nLGPWWOYN-43" value="into_node" style="text;strokeColor=none;fillColor=none;align=left;verticalAlign=top;spacingLeft=4;spacingRight=4;overflow=hidden;rotatable=0;points=[[0,0.5],[1,0.5]];portConstraint=eastwest;whiteSpace=wrap;html=1;" parent="13HKXBkhU_7nLGPWWOYN-40" vertex="1">
          <mxGeometry y="60" width="250" height="26" as="geometry" />
        </mxCell>
        <mxCell id="13HKXBkhU_7nLGPWWOYN-66" style="edgeStyle=orthogonalEdgeStyle;rounded=0;orthogonalLoop=1;jettySize=auto;html=1;exitX=0.25;exitY=1;exitDx=0;exitDy=0;entryX=0.25;entryY=0;entryDx=0;entryDy=0;" parent="1" source="13HKXBkhU_7nLGPWWOYN-53" target="13HKXBkhU_7nLGPWWOYN-54" edge="1">
          <mxGeometry relative="1" as="geometry" />
        </mxCell>
        <mxCell id="13HKXBkhU_7nLGPWWOYN-67" style="edgeStyle=orthogonalEdgeStyle;rounded=0;orthogonalLoop=1;jettySize=auto;html=1;exitX=0.75;exitY=1;exitDx=0;exitDy=0;entryX=0.25;entryY=0;entryDx=0;entryDy=0;" parent="1" source="13HKXBkhU_7nLGPWWOYN-53" target="13HKXBkhU_7nLGPWWOYN-63" edge="1">
          <mxGeometry relative="1" as="geometry" />
        </mxCell>
        <mxCell id="13HKXBkhU_7nLGPWWOYN-53" value="List" style="rounded=0;whiteSpace=wrap;html=1;" parent="1" vertex="1">
          <mxGeometry x="210" y="-90" width="120" height="60" as="geometry" />
        </mxCell>
        <mxCell id="13HKXBkhU_7nLGPWWOYN-58" style="edgeStyle=orthogonalEdgeStyle;rounded=0;orthogonalLoop=1;jettySize=auto;html=1;exitX=0.25;exitY=1;exitDx=0;exitDy=0;entryX=0.25;entryY=0;entryDx=0;entryDy=0;" parent="1" source="13HKXBkhU_7nLGPWWOYN-54" target="13HKXBkhU_7nLGPWWOYN-55" edge="1">
          <mxGeometry relative="1" as="geometry" />
        </mxCell>
        <mxCell id="13HKXBkhU_7nLGPWWOYN-61" style="edgeStyle=orthogonalEdgeStyle;rounded=0;orthogonalLoop=1;jettySize=auto;html=1;exitX=1;exitY=0.25;exitDx=0;exitDy=0;entryX=0;entryY=0.25;entryDx=0;entryDy=0;" parent="1" source="13HKXBkhU_7nLGPWWOYN-54" target="13HKXBkhU_7nLGPWWOYN-60" edge="1">
          <mxGeometry relative="1" as="geometry" />
        </mxCell>
        <mxCell id="13HKXBkhU_7nLGPWWOYN-54" value="Node" style="rounded=0;whiteSpace=wrap;html=1;" parent="1" vertex="1">
          <mxGeometry x="210" y="30" width="120" height="60" as="geometry" />
        </mxCell>
        <mxCell id="13HKXBkhU_7nLGPWWOYN-57" style="edgeStyle=orthogonalEdgeStyle;rounded=0;orthogonalLoop=1;jettySize=auto;html=1;exitX=0.75;exitY=0;exitDx=0;exitDy=0;entryX=0.75;entryY=1;entryDx=0;entryDy=0;" parent="1" source="13HKXBkhU_7nLGPWWOYN-55" target="13HKXBkhU_7nLGPWWOYN-54" edge="1">
          <mxGeometry relative="1" as="geometry" />
        </mxCell>
        <mxCell id="13HKXBkhU_7nLGPWWOYN-55" value="TCB" style="rounded=0;whiteSpace=wrap;html=1;" parent="1" vertex="1">
          <mxGeometry x="210" y="150" width="120" height="60" as="geometry" />
        </mxCell>
        <mxCell id="13HKXBkhU_7nLGPWWOYN-62" style="edgeStyle=orthogonalEdgeStyle;rounded=0;orthogonalLoop=1;jettySize=auto;html=1;exitX=0;exitY=0.75;exitDx=0;exitDy=0;entryX=1;entryY=0.75;entryDx=0;entryDy=0;" parent="1" source="13HKXBkhU_7nLGPWWOYN-60" target="13HKXBkhU_7nLGPWWOYN-54" edge="1">
          <mxGeometry relative="1" as="geometry" />
        </mxCell>
        <mxCell id="13HKXBkhU_7nLGPWWOYN-64" style="edgeStyle=orthogonalEdgeStyle;rounded=0;orthogonalLoop=1;jettySize=auto;html=1;exitX=1;exitY=0.25;exitDx=0;exitDy=0;entryX=0;entryY=0.25;entryDx=0;entryDy=0;" parent="1" source="13HKXBkhU_7nLGPWWOYN-60" target="13HKXBkhU_7nLGPWWOYN-63" edge="1">
          <mxGeometry relative="1" as="geometry" />
        </mxCell>
        <mxCell id="13HKXBkhU_7nLGPWWOYN-69" style="edgeStyle=orthogonalEdgeStyle;rounded=0;orthogonalLoop=1;jettySize=auto;html=1;exitX=0.25;exitY=1;exitDx=0;exitDy=0;entryX=0.25;entryY=0;entryDx=0;entryDy=0;" parent="1" source="13HKXBkhU_7nLGPWWOYN-60" target="13HKXBkhU_7nLGPWWOYN-68" edge="1">
          <mxGeometry relative="1" as="geometry" />
        </mxCell>
        <mxCell id="13HKXBkhU_7nLGPWWOYN-60" value="Node" style="rounded=0;whiteSpace=wrap;html=1;" parent="1" vertex="1">
          <mxGeometry x="410" y="30" width="120" height="60" as="geometry" />
        </mxCell>
        <mxCell id="13HKXBkhU_7nLGPWWOYN-65" style="edgeStyle=orthogonalEdgeStyle;rounded=0;orthogonalLoop=1;jettySize=auto;html=1;exitX=0;exitY=0.75;exitDx=0;exitDy=0;entryX=1;entryY=0.75;entryDx=0;entryDy=0;" parent="1" source="13HKXBkhU_7nLGPWWOYN-63" target="13HKXBkhU_7nLGPWWOYN-60" edge="1">
          <mxGeometry relative="1" as="geometry" />
        </mxCell>
        <mxCell id="13HKXBkhU_7nLGPWWOYN-63" value="Node" style="rounded=0;whiteSpace=wrap;html=1;" parent="1" vertex="1">
          <mxGeometry x="610" y="30" width="120" height="60" as="geometry" />
        </mxCell>
        <mxCell id="13HKXBkhU_7nLGPWWOYN-70" style="edgeStyle=orthogonalEdgeStyle;rounded=0;orthogonalLoop=1;jettySize=auto;html=1;exitX=0.75;exitY=0;exitDx=0;exitDy=0;entryX=0.75;entryY=1;entryDx=0;entryDy=0;" parent="1" source="13HKXBkhU_7nLGPWWOYN-68" target="13HKXBkhU_7nLGPWWOYN-60" edge="1">
          <mxGeometry relative="1" as="geometry" />
        </mxCell>
        <mxCell id="13HKXBkhU_7nLGPWWOYN-68" value="TCB" style="rounded=0;whiteSpace=wrap;html=1;" parent="1" vertex="1">
          <mxGeometry x="410" y="150" width="120" height="60" as="geometry" />
        </mxCell>
        <mxCell id="ne-l0hvkP_fATwcaqts8-14" style="edgeStyle=orthogonalEdgeStyle;rounded=0;orthogonalLoop=1;jettySize=auto;html=1;exitX=0.5;exitY=0;exitDx=0;exitDy=0;entryX=0.5;entryY=1;entryDx=0;entryDy=0;" edge="1" parent="1" source="13HKXBkhU_7nLGPWWOYN-73" target="ne-l0hvkP_fATwcaqts8-3">
          <mxGeometry relative="1" as="geometry" />
        </mxCell>
        <mxCell id="ne-l0hvkP_fATwcaqts8-15" value="deref&lt;div&gt;&lt;br&gt;&lt;/div&gt;" style="edgeLabel;html=1;align=center;verticalAlign=middle;resizable=0;points=[];" vertex="1" connectable="0" parent="ne-l0hvkP_fATwcaqts8-14">
          <mxGeometry x="0.0398" relative="1" as="geometry">
            <mxPoint as="offset" />
          </mxGeometry>
        </mxCell>
        <mxCell id="13HKXBkhU_7nLGPWWOYN-73" value="TPtr" style="rounded=0;whiteSpace=wrap;html=1;" parent="1" vertex="1">
          <mxGeometry x="900" y="90" width="120" height="60" as="geometry" />
        </mxCell>
        <mxCell id="ne-l0hvkP_fATwcaqts8-12" style="edgeStyle=orthogonalEdgeStyle;rounded=0;orthogonalLoop=1;jettySize=auto;html=1;exitX=0.5;exitY=0;exitDx=0;exitDy=0;entryX=0.5;entryY=1;entryDx=0;entryDy=0;" edge="1" parent="1" source="13HKXBkhU_7nLGPWWOYN-74" target="ne-l0hvkP_fATwcaqts8-8">
          <mxGeometry relative="1" as="geometry" />
        </mxCell>
        <mxCell id="ne-l0hvkP_fATwcaqts8-13" value="deref" style="edgeLabel;html=1;align=center;verticalAlign=middle;resizable=0;points=[];" vertex="1" connectable="0" parent="ne-l0hvkP_fATwcaqts8-12">
          <mxGeometry x="0.0676" y="-2" relative="1" as="geometry">
            <mxPoint as="offset" />
          </mxGeometry>
        </mxCell>
        <mxCell id="13HKXBkhU_7nLGPWWOYN-74" value="NodePtr" style="rounded=0;whiteSpace=wrap;html=1;" parent="1" vertex="1">
          <mxGeometry x="1181" y="90" width="120" height="60" as="geometry" />
        </mxCell>
        <mxCell id="ne-l0hvkP_fATwcaqts8-16" style="edgeStyle=orthogonalEdgeStyle;rounded=0;orthogonalLoop=1;jettySize=auto;html=1;exitX=0.5;exitY=0;exitDx=0;exitDy=0;entryX=0.5;entryY=1;entryDx=0;entryDy=0;" edge="1" parent="1" source="13HKXBkhU_7nLGPWWOYN-78" target="ne-l0hvkP_fATwcaqts8-11">
          <mxGeometry relative="1" as="geometry" />
        </mxCell>
        <mxCell id="ne-l0hvkP_fATwcaqts8-17" value="Text" style="edgeLabel;html=1;align=center;verticalAlign=middle;resizable=0;points=[];" vertex="1" connectable="0" parent="ne-l0hvkP_fATwcaqts8-16">
          <mxGeometry x="-0.1824" y="-4" relative="1" as="geometry">
            <mxPoint as="offset" />
          </mxGeometry>
        </mxCell>
        <mxCell id="13HKXBkhU_7nLGPWWOYN-78" value="ListPtr" style="rounded=0;whiteSpace=wrap;html=1;" parent="1" vertex="1">
          <mxGeometry x="1450" y="90" width="120" height="60" as="geometry" />
        </mxCell>
        <mxCell id="ne-l0hvkP_fATwcaqts8-1" style="edgeStyle=orthogonalEdgeStyle;rounded=0;orthogonalLoop=1;jettySize=auto;html=1;exitX=1;exitY=0.25;exitDx=0;exitDy=0;entryX=0;entryY=0.25;entryDx=0;entryDy=0;" edge="1" parent="1" source="ne-l0hvkP_fATwcaqts8-3" target="13HKXBkhU_7nLGPWWOYN-74">
          <mxGeometry relative="1" as="geometry">
            <Array as="points">
              <mxPoint x="1080" y="-35" />
              <mxPoint x="1080" y="105" />
            </Array>
          </mxGeometry>
        </mxCell>
        <mxCell id="ne-l0hvkP_fATwcaqts8-2" value="into_node" style="edgeLabel;html=1;align=center;verticalAlign=middle;resizable=0;points=[];" vertex="1" connectable="0" parent="ne-l0hvkP_fATwcaqts8-1">
          <mxGeometry x="-0.0359" y="-3" relative="1" as="geometry">
            <mxPoint as="offset" />
          </mxGeometry>
        </mxCell>
        <mxCell id="ne-l0hvkP_fATwcaqts8-3" value="TOpt:&amp;amp;T" style="rounded=0;whiteSpace=wrap;html=1;" vertex="1" parent="1">
          <mxGeometry x="900" y="-50" width="120" height="60" as="geometry" />
        </mxCell>
        <mxCell id="ne-l0hvkP_fATwcaqts8-4" style="edgeStyle=orthogonalEdgeStyle;rounded=0;orthogonalLoop=1;jettySize=auto;html=1;exitX=0;exitY=0.75;exitDx=0;exitDy=0;entryX=1;entryY=0.75;entryDx=0;entryDy=0;" edge="1" parent="1" source="ne-l0hvkP_fATwcaqts8-8" target="13HKXBkhU_7nLGPWWOYN-73">
          <mxGeometry relative="1" as="geometry">
            <Array as="points">
              <mxPoint x="1140" y="-5" />
              <mxPoint x="1140" y="135" />
            </Array>
          </mxGeometry>
        </mxCell>
        <mxCell id="ne-l0hvkP_fATwcaqts8-5" value="into_element" style="edgeLabel;html=1;align=center;verticalAlign=middle;resizable=0;points=[];" vertex="1" connectable="0" parent="ne-l0hvkP_fATwcaqts8-4">
          <mxGeometry x="-0.041" y="-1" relative="1" as="geometry">
            <mxPoint x="1" y="-28" as="offset" />
          </mxGeometry>
        </mxCell>
        <mxCell id="ne-l0hvkP_fATwcaqts8-6" style="edgeStyle=orthogonalEdgeStyle;rounded=0;orthogonalLoop=1;jettySize=auto;html=1;exitX=1;exitY=0.25;exitDx=0;exitDy=0;entryX=0;entryY=0.5;entryDx=0;entryDy=0;" edge="1" parent="1" source="ne-l0hvkP_fATwcaqts8-8" target="13HKXBkhU_7nLGPWWOYN-78">
          <mxGeometry relative="1" as="geometry">
            <Array as="points">
              <mxPoint x="1410" y="-35" />
              <mxPoint x="1410" y="120" />
            </Array>
          </mxGeometry>
        </mxCell>
        <mxCell id="ne-l0hvkP_fATwcaqts8-7" value="get_list" style="edgeLabel;html=1;align=center;verticalAlign=middle;resizable=0;points=[];" vertex="1" connectable="0" parent="ne-l0hvkP_fATwcaqts8-6">
          <mxGeometry x="0.0182" y="-3" relative="1" as="geometry">
            <mxPoint as="offset" />
          </mxGeometry>
        </mxCell>
        <mxCell id="ne-l0hvkP_fATwcaqts8-8" value="NodeOpt:&amp;amp;T" style="rounded=0;whiteSpace=wrap;html=1;" vertex="1" parent="1">
          <mxGeometry x="1181" y="-50" width="120" height="60" as="geometry" />
        </mxCell>
        <mxCell id="ne-l0hvkP_fATwcaqts8-9" style="edgeStyle=orthogonalEdgeStyle;rounded=0;orthogonalLoop=1;jettySize=auto;html=1;exitX=0;exitY=0.75;exitDx=0;exitDy=0;entryX=1;entryY=0.5;entryDx=0;entryDy=0;" edge="1" parent="1" source="ne-l0hvkP_fATwcaqts8-11" target="13HKXBkhU_7nLGPWWOYN-74">
          <mxGeometry relative="1" as="geometry">
            <Array as="points">
              <mxPoint x="1360" y="-5" />
              <mxPoint x="1360" y="120" />
            </Array>
          </mxGeometry>
        </mxCell>
        <mxCell id="ne-l0hvkP_fATwcaqts8-10" value="iter" style="edgeLabel;html=1;align=center;verticalAlign=middle;resizable=0;points=[];" vertex="1" connectable="0" parent="ne-l0hvkP_fATwcaqts8-9">
          <mxGeometry x="0.0727" y="-2" relative="1" as="geometry">
            <mxPoint as="offset" />
          </mxGeometry>
        </mxCell>
        <mxCell id="ne-l0hvkP_fATwcaqts8-11" value="ListOpt:&amp;amp;T" style="rounded=0;whiteSpace=wrap;html=1;" vertex="1" parent="1">
          <mxGeometry x="1450" y="-50" width="120" height="60" as="geometry" />
        </mxCell>
      </root>
    </mxGraphModel>
  </diagram>
</mxfile>
